<svg id="Layer_1" data-name="Layer 1" xmlns="http://www.w3.org/2000/svg" viewBox="0 0 64 64"><defs><style>.cls-1{fill:#555554;}</style></defs><title>gotop</title><path class="cls-1" d="M32,0A32,32,0,1,0,64,32,32,32,0,0,0,32,0Zm0,62.86A30.86,30.86,0,1,1,62.86,32,30.89,30.89,0,0,1,32,62.86Z"/><path id="arrow_2_t" data-name="arrow 2 t" class="cls-1" d="M42.88,28.74a.57.57,0,0,0,0-.81L32.4,17.45a.58.58,0,0,0-.8,0L21.11,27.93a.57.57,0,0,0,0,.81.58.58,0,0,0,.8,0l9.51-9.52V48.72a.57.57,0,1,0,1.14,0V19.22l9.51,9.52A.58.58,0,0,0,42.88,28.74Z"/></svg>