<svg id="Layer_1" data-name="Layer 1" xmlns="http://www.w3.org/2000/svg" viewBox="0 0 64 64"><defs><style>.cls-1{fill:#555554;}</style></defs><title>pinterest</title><path class="cls-1" d="M32,0A32,32,0,1,0,64,32,32,32,0,0,0,32,0Zm0,62.86A30.86,30.86,0,1,1,62.86,32,30.9,30.9,0,0,1,32,62.86Z"/><path id="pinterest" class="cls-1" d="M42.73,38.24a14.83,14.83,0,0,0,2.76-9,10,10,0,0,0-.85-4,10.6,10.6,0,0,0-2.39-3.43,12.16,12.16,0,0,0-8.52-3.27A15.09,15.09,0,0,0,28,19.54a12.31,12.31,0,0,0-4.14,2.76,11.31,11.31,0,0,0-3.33,7.83,9.88,9.88,0,0,0,.95,4.41A6.07,6.07,0,0,0,23.59,37a.58.58,0,0,0,.86-.35l.93-3.93a.68.68,0,0,0,0-.16.56.56,0,0,0,0-.2l0-.08a5.43,5.43,0,0,1-.24-1.67A7.92,7.92,0,0,1,27.28,25a8,8,0,0,1,6-2.39,7.06,7.06,0,0,1,5.06,1.78A6,6,0,0,1,40,28.87a13,13,0,0,1-1.47,6.35C37.36,37.29,36,37.73,35,37.73a2.34,2.34,0,0,1-1.86-.85A2.15,2.15,0,0,1,32.75,35c.19-.79.44-1.61.69-2.41a15.32,15.32,0,0,0,.89-4,3.47,3.47,0,0,0-.72-2.23,2.78,2.78,0,0,0-2.24-1,3.57,3.57,0,0,0-2.87,1.54,6,6,0,0,0-1.11,3.62,7.85,7.85,0,0,0,.5,2.76l0,.1L25.7,42.86A21,21,0,0,0,25.75,50a.58.58,0,0,0,1,.33,19.24,19.24,0,0,0,3.62-6.11c.13-.46.52-2,.83-3.22l.13-.52.43.32a6.23,6.23,0,0,0,3.63,1.18,9,9,0,0,0,4.15-1A9.56,9.56,0,0,0,42.73,38.24Zm-7.35,2.55a4.58,4.58,0,0,1-3.79-1.86A.59.59,0,0,0,30.5,39s-1,4.09-1.24,4.86a13.36,13.36,0,0,1-2,3.89l-.57.82-.08-1a15.66,15.66,0,0,1,.2-4.47l2.27-9.63a.6.6,0,0,0,0-.16.57.57,0,0,0-.07-.27,6.44,6.44,0,0,1-.5-2.54c0-2.25,1.25-4,2.84-4a1.66,1.66,0,0,1,1.35.58,2.39,2.39,0,0,1,.46,1.52,14.65,14.65,0,0,1-.84,3.67c-.25.82-.51,1.66-.71,2.5a3.27,3.27,0,0,0,.59,2.84A3.47,3.47,0,0,0,35,38.87c1.8,0,3.41-1.1,4.55-3.09a14.17,14.17,0,0,0,1.62-6.91,7.15,7.15,0,0,0-2.07-5.27,8.18,8.18,0,0,0-5.86-2.1,9.89,9.89,0,0,0-3.84.74,8.71,8.71,0,0,0-2.93,2A9.06,9.06,0,0,0,24,30.57a6.86,6.86,0,0,0,.22,1.79l0,.09-.72,3.06L23,34.9a5.47,5.47,0,0,1-.55-.88,8.72,8.72,0,0,1-.82-3.89,9.59,9.59,0,0,1,.75-3.64,10.58,10.58,0,0,1,2.25-3.39,12.25,12.25,0,0,1,9.06-3.48,11.87,11.87,0,0,1,4.39.81,10.2,10.2,0,0,1,3.35,2.14,9.52,9.52,0,0,1,2.14,3.06,8.93,8.93,0,0,1,.75,3.58,13.68,13.68,0,0,1-2.52,8.34A7.92,7.92,0,0,1,35.38,40.79Z"/></svg>