<svg id="Layer_1" data-name="Layer 1" xmlns="http://www.w3.org/2000/svg" viewBox="0 0 64 64"><defs><style>.cls-1{fill:#555554;}</style></defs><title>vimeo</title><path class="cls-1" d="M32,0A32,32,0,1,0,64,32,32,32,0,0,0,32,0Zm0,62.86A30.86,30.86,0,1,1,62.86,32,30.9,30.9,0,0,1,32,62.86Z"/><path id="vimeo" class="cls-1" d="M40.57,39.88a46,46,0,0,0,4.68-7.1A14.19,14.19,0,0,0,47,27.21c.11-2.4-.37-4.19-1.42-5.32A4.91,4.91,0,0,0,42,20.44h-.26a8.35,8.35,0,0,0-5.74,2.39,13.17,13.17,0,0,0-3.38,5.46,1.57,1.57,0,0,0,0,.18.59.59,0,0,0,.79.52,8.58,8.58,0,0,1,2.19-.67,1.55,1.55,0,0,1,1.21.39,2.22,2.22,0,0,1,.3,1.62,11.6,11.6,0,0,1-2,4.42,8.63,8.63,0,0,1-2.22,2.71l-.24.14-.2-.2c-.29-.29-.86-1.21-1.51-4.13-.23-.93-.65-3.29-1.24-7a8.28,8.28,0,0,0-1.51-4,3.81,3.81,0,0,0-3.54-1.42c-1.17.11-2.72,1-4.89,2.91-1.43,1.29-4.51,4-4.51,4a.57.57,0,0,0-.19.43.58.58,0,0,0,.14.38l1.41,1.82a.58.58,0,0,0,.81.13,14.75,14.75,0,0,1,2.14-1.33l.17-.08.16.1a2.79,2.79,0,0,1,.87,1.2,20.34,20.34,0,0,1,1.17,3.33l2.49,9.14c1.4,3.76,3.12,5.65,5.13,5.65,1.57,0,3.27-.75,5.19-2.29A37.51,37.51,0,0,0,40.57,39.88ZM29.48,47.39c-1.45,0-2.85-1.67-4-4.82L23,33.44a19.59,19.59,0,0,0-1.38-3.79c-.22-.41-.87-1.64-1.94-1.64a1.47,1.47,0,0,0-.34,0,8.88,8.88,0,0,0-1.89,1.05l-.28.18-.79-1,.25-.22c1.36-1.2,2.62-2.33,3.85-3.44,2.4-2.08,3.64-2.58,4.25-2.64a2.68,2.68,0,0,1,2.55,1,7.34,7.34,0,0,1,1.27,3.44c.6,3.82,1,6.15,1.25,7.11a17.26,17.26,0,0,0,1.13,3.67c.18.37.72,1.5,1.71,1.5s1.91-1,3.39-3.33a12.41,12.41,0,0,0,2.16-4.91,3.13,3.13,0,0,0-.59-2.5,2.64,2.64,0,0,0-2.05-.77,3.59,3.59,0,0,0-.69.08l-.73.15.34-.66a11.4,11.4,0,0,1,2.28-3.09,7.22,7.22,0,0,1,5-2.08h.23a3.77,3.77,0,0,1,2.8,1.08c.83.9,1.21,2.41,1.12,4.49-.13,2.88-2.21,6.92-6.17,12l0,0C35.46,44.64,32,47.39,29.48,47.39Z"/></svg>