<svg id="Layer_1" data-name="Layer 1" xmlns="http://www.w3.org/2000/svg" viewBox="0 0 64 64"><defs><style>.cls-1{fill:#f06222;}</style></defs><title>facebook_hover</title><path class="cls-1" d="M32,0A32,32,0,1,0,64,32,32,32,0,0,0,32,0Zm0,62.86A30.86,30.86,0,1,1,62.86,32,30.9,30.9,0,0,1,32,62.86Z"/><path id="facebook" class="cls-1" d="M39.45,29a.57.57,0,0,0-.57-.57H34.81V23.89a.61.61,0,0,1,.61-.62h4a.57.57,0,0,0,.57-.57V17a.57.57,0,0,0-.57-.57l-5.95,0a6.48,6.48,0,0,0-6,6.46v5.51H24.57A.57.57,0,0,0,24,29V34.7a.57.57,0,0,0,.57.57H27.5V47.91a.57.57,0,0,0,.57.57h6.17a.57.57,0,0,0,.57-.57V34.59h3.45a.57.57,0,0,0,.56-.47l.63-5A.65.65,0,0,0,39.45,29Zm-1.7,4.41H33.67V47.34h-5V34.13h-3.5V29.61h3.5V23a5.34,5.34,0,0,1,4.89-5.32l5.34,0v4.52H35.42a1.75,1.75,0,0,0-1.75,1.75v5.72h4.57Z"/></svg>