<svg id="Layer_1" data-name="Layer 1" xmlns="http://www.w3.org/2000/svg" viewBox="0 0 64 64"><defs><style>.cls-1{fill:#555554;}</style></defs><title>instagram</title><path class="cls-1" d="M32,0A32,32,0,1,0,64,32,32,32,0,0,0,32,0Zm0,62.86A30.86,30.86,0,1,1,62.86,32,30.9,30.9,0,0,1,32,62.86Z"/><g id="instagram"><path class="cls-1" d="M46.5,16.48h-29A1.5,1.5,0,0,0,16,18V47a1.5,1.5,0,0,0,1.5,1.5h29A1.5,1.5,0,0,0,48,47V18A1.5,1.5,0,0,0,46.5,16.48Zm.36,30.86H17.14V28.82h7.34l-.29.53a8.91,8.91,0,1,0,15.62,0l-.29-.53h7.34ZM26.5,28.15a7.77,7.77,0,1,1-2.28,5.5A7.73,7.73,0,0,1,26.5,28.15Zm20.36-.46H38.63l-.11-.12a8.91,8.91,0,0,0-13,0l-.11.12H17.14V17.62h2.57v5.83a.57.57,0,1,0,1.14,0V17.62h2.57v5.83a.57.57,0,1,0,1.14,0V17.62H46.86Z"/><path class="cls-1" d="M32,38.85a5.21,5.21,0,1,0-5.2-5.21A5.21,5.21,0,0,0,32,38.85Zm0-9.27a4.07,4.07,0,1,1-4.06,4.06A4.07,4.07,0,0,1,32,29.58Z"/><path class="cls-1" d="M40,25h3.71a.57.57,0,0,0,.57-.57V20.75a.57.57,0,0,0-.57-.57H40a.57.57,0,0,0-.57.57v3.71A.57.57,0,0,0,40,25Zm.57-3.71h2.57v2.57H40.58Z"/></g></svg>