<svg id="Layer_1" data-name="Layer 1" xmlns="http://www.w3.org/2000/svg" viewBox="0 0 64 64"><defs><style>.cls-1{fill:#f06222;}</style></defs><title>twitter_hover</title><path class="cls-1" d="M32,0A32,32,0,1,0,64,32,32,32,0,0,0,32,0Zm0,62.86A30.86,30.86,0,1,1,62.86,32,30.9,30.9,0,0,1,32,62.86Z"/><path id="twitter" class="cls-1" d="M44.29,44a4.52,4.52,0,0,0-4.51-4.52H32.11a3.37,3.37,0,0,1-3.38-3.37V33.39h11a4.51,4.51,0,1,0,0-9h-11V21a4.51,4.51,0,1,0-9,0V36.07a12.4,12.4,0,0,0,12.4,12.4h7.66A4.52,4.52,0,0,0,44.29,44Zm-4.51,3.37H32.11A11.26,11.26,0,0,1,20.85,36.07V21a3.38,3.38,0,0,1,6.75,0V25.5H39.77a3.38,3.38,0,0,1,0,6.75H27.6v3.82a4.51,4.51,0,0,0,4.51,4.51h7.66a3.37,3.37,0,1,1,0,6.75Z"/></svg>